<svg xmlns="http://www.w3.org/2000/svg" viewBox="0 0 512 512">
  <rect width="512" height="512" rx="112" fill="#1a1714"/>
  <!-- film strip -->
  <rect x="150" y="86" width="212" height="340" rx="24" fill="#f5ece0"/>
  <g fill="#1a1714">
    <rect x="124" y="110" width="22" height="28" rx="6"/>
    <rect x="124" y="166" width="22" height="28" rx="6"/>
    <rect x="124" y="222" width="22" height="28" rx="6"/>
    <rect x="124" y="278" width="22" height="28" rx="6"/>
    <rect x="124" y="334" width="22" height="28" rx="6"/>
    <rect x="366" y="110" width="22" height="28" rx="6"/>
    <rect x="366" y="166" width="22" height="28" rx="6"/>
    <rect x="366" y="222" width="22" height="28" rx="6"/>
    <rect x="366" y="278" width="22" height="28" rx="6"/>
    <rect x="366" y="334" width="22" height="28" rx="6"/>
  </g>
  <!-- four frames -->
  <rect x="172" y="108" width="168" height="68" rx="10" fill="#ff5436"/>
  <rect x="172" y="184" width="168" height="68" rx="10" fill="#ffb347"/>
  <rect x="172" y="260" width="168" height="68" rx="10" fill="#a9d6e5"/>
  <rect x="172" y="336" width="168" height="68" rx="10" fill="#ffc8dd"/>
</svg>
